<svg xmlns="http://www.w3.org/2000/svg" viewBox="97 -1729 17586 2155.2987060546875" fill="#000000"><path d="M97-1351L97-1449L726-1480Q1042-1496 1227-1367L1227-1367Q1499-1183 1499-780L1499-780Q1499-276 1104-80L1104-80Q955-7 716 4L716 4L97 35L97-63Q205-74 253-95L253-95Q306-122 306-212L306-212L306-1217Q306-1300 275-1320L275-1320Q237-1349 97-1351L97-1351ZM710-1373L710-1373L636-1370Q581-1367 536-1355L536-1355Q459-1331 459-1225L459-1225L459-222Q459-141 510-119L510-119Q552-99 636-104L636-104L710-107Q970-120 1096-215L1096-215Q1323-383 1323-781L1323-781Q1323-1404 710-1373Z" /><path d="M3042-1520L3042-1423Q2882-1412 2776-1233L2776-1233L2403-599L2403-241Q2403-160 2454-134L2454-134Q2497-112 2620-112L2620-112L2620-15L2037 14L2037-83Q2162-96 2203-117L2203-117Q2252-142 2252-233L2252-233L2252-572L1865-1206Q1771-1356 1611-1351L1611-1351L1611-1448L2182-1477L2182-1380Q2004-1368 2004-1323L2004-1323Q2004-1290 2037-1234L2037-1234L2347-704L2690-1303Q2706-1330 2706-1350L2706-1350Q2706-1400 2516-1397L2516-1397L2516-1494L3042-1520Z" /><path d="M4847-142L4847-45L4341-19L4341-116Q4426-121 4476-140L4476-140Q4521-155 4521-235L4521-235L4521-661Q4521-815 4490-871L4490-871Q4440-953 4328-948L4328-948Q4128-938 4050-700L4050-700L4050-212Q4050-136 4087-123L4087-123Q4134-106 4230-111L4230-111L4230-14L3722 12L3722-85Q3800-89 3844-105L3844-105Q3903-123 3903-204L3903-204L3903-632Q3903-792 3874-841L3874-841Q3825-923 3715-917L3715-917Q3513-907 3435-671L3435-671L3435-181Q3435-105 3472-92L3472-92Q3520-75 3614-80L3614-80L3614 17L3108 42L3108-55Q3187-59 3228-74L3228-74Q3288-93 3288-174L3288-174L3288-786Q3288-865 3247-879L3247-879Q3212-889 3108-884L3108-884L3108-986Q3295-998 3429-1036L3429-1036L3429-834Q3539-1034 3737-1044L3737-1044Q3982-1056 4024-836L4024-836Q4134-1064 4356-1075L4356-1075Q4668-1091 4668-702L4668-702L4668-243Q4668-164 4718-150L4718-150Q4759-137 4840-141L4840-141L4847-142Z" /><path d="M5205-1491L5205-1491Q5247-1493 5277-1462L5277-1462Q5315-1427 5315-1371L5315-1371Q5315-1249 5205-1244L5205-1244Q5098-1238 5098-1360L5098-1360Q5098-1485 5205-1491ZM5452-110L5452-13L4955 12L4955-85Q5028-89 5072-104L5072-104Q5133-123 5133-204L5133-204L5133-816Q5133-895 5092-909L5092-909Q5060-920 4955-914L4955-914L4955-1016Q5128-1028 5278-1066L5278-1066L5278-211Q5278-136 5317-123L5317-123Q5364-106 5452-110L5452-110Z" /><path d="M6762-128L6762-31L6259-5L6259-102Q6331-106 6376-119L6376-119Q6437-138 6437-221L6437-221L6437-651Q6437-941 6215-930L6215-930Q5992-919 5908-683L5908-683L5908-195Q5908-119 5961-102L5961-102Q5997-89 6085-94L6085-94L6085 3L5581 28L5581-69Q5660-72 5701-88L5701-88Q5761-107 5761-188L5761-188L5761-800Q5761-879 5720-892L5720-892Q5685-903 5581-898L5581-898L5581-1000Q5763-1012 5900-1049L5900-1049L5900-839Q6023-1049 6244-1060L6244-1060Q6584-1077 6584-688L6584-688L6584-229Q6584-154 6635-136L6635-136Q6673-123 6762-128L6762-128Z" /><path d="M7567-1027L7567-1027Q7678-1163 7791-1168L7791-1168Q7896-1173 7896-1067L7896-1067Q7896-971 7817-967L7817-967Q7747-964 7744-1042L7744-1042Q7665-1028 7638-990L7638-990Q7763-913 7763-719L7763-719Q7763-516 7597-412L7597-412Q7499-352 7373-345L7373-345Q7291-341 7194-361L7194-361Q7126-330 7126-292L7126-292Q7126-210 7347-206L7347-206L7462-204Q7855-195 7855 74L7855 74Q7855 219 7730 313L7730 313Q7601 413 7371 425L7371 425Q7171 435 7040 368L7040 368Q6899 296 6899 150L6899 150Q6899-67 7196-127L7196-127L7196-95Q7001-130 7001-263L7001-263Q7001-381 7077-407L7077-407Q6938-463 6938-668L6938-668Q6938-849 7085-963L7085-963Q7196-1050 7350-1058L7350-1058Q7472-1064 7567-1027ZM7348-946L7348-946Q7228-940 7152-861L7152-861Q7083-789 7083-679L7083-679Q7083-441 7350-454L7350-454Q7490-461 7564-546L7564-546Q7622-611 7622-714L7622-714Q7622-813 7555-877L7555-877Q7478-953 7348-946ZM7359-60L7359-60Q7044-44 7044 130L7044 130Q7044 221 7138 270L7138 270Q7227 318 7369 311L7369 311Q7571 301 7666 199L7666 199Q7710 152 7710 95L7710 95Q7710-77 7359-60Z" /><path d="M9111-1226L8856-1214L8856-829Q8856-730 8855-720L8855-720L9685-761L9773-861Q9826-828 9911-746L9911-746L9871-679L8849-628Q8815-113 8527 187L8527 187L8472 140Q8731-205 8731-814L8731-814L8731-1132Q8668-1067 8584-995L8584-995L8533-1048Q8813-1342 8931-1710L8931-1710Q9114-1697 9114-1640L9114-1640Q9114-1598 9025-1576L9025-1576Q9025-1575 9019-1562L9019-1562Q9004-1530 9014-1551L9014-1551L9328-1566L9402-1656Q9534-1551 9534-1514L9534-1514Q9534-1481 9493-1466L9493-1466L9437-1446Q9362-1350 9339-1329L9339-1329L9680-1346L9773-1465Q9844-1404 9910-1328L9910-1328L9874-1265L9491-1245L9491-1141Q9493-1122 9508-1116L9508-1116Q9528-1111 9605-1115L9605-1115Q9699-1120 9718-1152L9718-1152Q9734-1178 9741-1260L9741-1260L9797-1246Q9801-1158 9805-1147L9805-1147Q9812-1132 9857-1131L9857-1131Q9851-1022 9787-1002L9787-1002Q9744-990 9633-984L9633-984Q9456-976 9417-998L9417-998Q9372-1025 9372-1104L9372-1104L9372-1239L9237-1233Q9216-972 8897-867L8897-867L8861-938Q9101-1055 9111-1226L9111-1226ZM8886-1306L8886-1306L9225-1323Q9290-1421 9312-1474L9312-1474L8966-1457Q8916-1372 8876-1314L8876-1314Q8866-1319 8886-1306ZM9069-230L9069-230L9599-257L9669-328Q9788-250 9788-211L9788-211Q9788-183 9766-169L9766-169L9729-144L9729 129L9608 135L9608 51L9043 79L9043 163L8922 169L8922-279Q8999-256 9069-230ZM9608-166L9043-138L9043-12L9608-40L9608-166ZM8018-1127L8068-1184Q8311-1093 8311-942L8311-942Q8311-844 8234-841L8234-841Q8188-838 8173-904L8173-904Q8145-1020 8018-1127L8018-1127ZM8167-1565L8211-1634Q8471-1563 8471-1407L8471-1407Q8471-1307 8394-1304L8394-1304Q8350-1301 8331-1377L8331-1377Q8308-1469 8167-1565L8167-1565ZM8937-889L9502-917L9585-994Q9585-994 9596-987L9596-987Q9600-982 9604-981L9604-981Q9648-956 9719-903L9719-903L9682-835L8977-800L8937-889ZM8912-558L9543-590L9626-670Q9679-640 9762-570L9762-570L9724-508L8957-470L8912-558ZM8914-401L9535-432L9623-510Q9684-475 9759-414L9759-414L9717-350L8959-312L8914-401ZM8561-1373L8619-1336L8354-364Q8322-246 8322-202L8322-202Q8322-183 8345-49L8345-49Q8356 11 8356 50L8356 50Q8356 193 8261 198L8261 198Q8181 202 8181 108L8181 108L8191 23Q8208-95 8208-153L8208-153Q8208-245 8168-278L8168-278Q8133-305 8047-314L8047-314L8047-407Q8115-400 8138-401L8138-401Q8222-405 8265-504L8265-504Q8387-807 8561-1373L8561-1373Z" /><path d="M10578-803L10302-789Q10289-722 10260-588L10260-588L10138-612Q10215-960 10252-1331L10252-1331Q10449-1311 10449-1250L10449-1250Q10449-1207 10362-1184L10362-1184Q10348-1030 10319-881L10319-881L10662-898L10662-1432L10163-1407L10129-1496L10808-1530L10896-1666Q10972-1597 11030-1518L11030-1518L10997-1449L10789-1438L10789-904L10828-906L10900-1032Q10921-1009 10932-993L10932-993Q11114-1272 11218-1729L11218-1729Q11408-1697 11408-1634L11408-1634Q11408-1589 11317-1571L11317-1571Q11251-1372 11189-1258L11189-1258L11450-1271Q11528-1463 11583-1727L11583-1727Q11775-1682 11775-1622L11775-1622Q11775-1576 11687-1561L11687-1561Q11616-1401 11538-1276L11538-1276L11753-1287L11841-1416Q11907-1352 11966-1270L11966-1270L11935-1205L11560-1186L11560-898L11702-905L11788-1028Q11851-967 11907-887L11907-887L11875-823L11560-807L11560-500L11700-507L11788-628Q11851-571 11912-490L11912-490L11877-425L11560-409L11560-79L11778-90L11878-226Q11945-162 12008-75L12008-75L11973-9L11177 31L11177 160L11050 167L11050-1033Q11025-995 10977-936L10977-936Q10975-938 11006-886L11006-886L10974-823L10789-813L10789-26Q10789 160 10591 170L10591 170Q10588 111 10530 90L10530 90Q10483 72 10344 60L10344 60L10344-33Q10469-24 10601-31L10601-31Q10662-34 10662-71L10662-71L10662-691Q10463-316 10120-32L10120-32L10068-90Q10415-431 10578-803L10578-803ZM11435-1180L11177-1167L11177-879L11435-892L11435-1180ZM11435-801L11177-788L11177-481L11435-494L11435-801ZM11435-403L11177-390L11177-60L11435-73L11435-403Z" /><path d="M12799-208L12799-345L12428-326L12428-111L12299-105L12299-1531Q12359-1510 12442-1467L12442-1467L12790-1484L12864-1582Q12985-1495 12985-1454L12985-1454Q12985-1428 12959-1406L12959-1406L12924-1377L12924-214L12799-208ZM13782-1496L13284-1471L13284-1126L13597-1142L13668-1241Q13727-1185 13779-1116L13779-1116L13748-1058L13284-1035L13284-770Q13284-724 13281-659L13281-659L13597-675L13668-773Q13726-719 13779-649L13779-649L13748-591L13276-568Q13252-310 13143-132L13143-132Q13029 55 12817 183L12817 183L12760 123Q12991-65 13072-267L13072-267Q13149-460 13149-763L13149-763L13149-1626Q13215-1602 13291-1563L13291-1563L13771-1587L13851-1689Q13978-1596 13978-1557L13978-1557Q13978-1530 13955-1509L13955-1509L13915-1474L13915-87Q13915 103 13694 114L13694 114Q13687 56 13643 40L13643 40Q13584 19 13397 5L13397 5L13397-91Q13572-84 13724-91L13724-91Q13782-94 13782-140L13782-140L13782-1496ZM12428-417L12799-436L12799-880L12428-861L12428-417ZM12428-952L12799-971L12799-1394L12428-1375L12428-952Z" /><path d="M15438-1047L15438-1047L15438-365L15574-372L15662-501Q15716-454 15799-355L15799-355L15759-290L15438-274L15438 154L15309 161L15309-267L14992-251L14957-341L15309-358L15309-955Q15094-452 14734-120L14734-120L14675-173Q15043-574 15242-1130L15242-1130L14779-1107L14744-1196L15309-1224L15309-1718Q15524-1725 15524-1655L15524-1655Q15524-1610 15438-1578L15438-1578L15438-1231L15841-1251L15947-1403Q16023-1335 16099-1236L16099-1236L16063-1171L15471-1141Q15707-708 16161-371L16161-371Q16078-312 16033-239L16033-239Q15630-591 15438-1047ZM14640-1086L14636-1079Q14727-1064 14727-1016L14727-1016Q14727-972 14647-940L14647-940L14647 194L14520 200L14520-851Q14386-617 14257-455L14257-455L14200-496Q14531-996 14702-1686L14702-1686Q14903-1649 14903-1584L14903-1584Q14903-1536 14808-1518L14808-1518Q14742-1308 14640-1086L14640-1086Z" /><path d="M17597-550L17683-525Q17610-244 17445-103L17445-103Q17285 36 17065 47L17065 47Q16776 62 16586-120L16586-120Q16362-328 16362-703L16362-703Q16362-1077 16590-1320L16590-1320Q16784-1525 17067-1539L17067-1539Q17290-1550 17459-1438L17459-1438Q17502-1411 17520-1412L17520-1412Q17547-1414 17551-1498L17551-1498L17623-1501L17623-1049L17555-1046Q17525-1198 17439-1291L17439-1291Q17302-1437 17078-1426L17078-1426Q16779-1411 16636-1151L16636-1151Q16538-966 16538-728L16538-728Q16538-445 16685-273L16685-273Q16842-87 17092-100L17092-100Q17471-119 17597-550L17597-550Z" /></svg>