<svg xmlns="http://www.w3.org/2000/svg" viewBox="77 -1725 18059 2150" fill="#000000"><path d="M77-1388L77-1484L726-1484Q1054-1484 1247-1341L1247-1341Q1519-1142 1519-745L1519-745Q1519-246 1119-68L1119-68Q963 0 716 0L716 0L77 0L77-97Q197-104 239-120L239-120Q286-141 286-237L286-237L286-1242Q286-1331 255-1352L255-1352Q223-1378 77-1388L77-1388ZM710-1378L710-1378L636-1378Q585-1378 545-1369L545-1369Q479-1352 479-1242L479-1242L479-239Q479-152 526-130L526-130Q561-112 636-112L636-112L710-112Q959-112 1077-195L1077-195Q1303-351 1303-755L1303-755Q1303-1378 710-1378Z" /><path d="M3102-1484L3102-1387Q2940-1384 2838-1217L2838-1217L2463-600L2463-237Q2463-150 2511-122L2511-122Q2547-103 2680-96L2680-96L2680 0L2057 0L2057-96Q2193-104 2228-119L2228-119Q2272-140 2272-237L2272-237L2272-581L1883-1237Q1793-1384 1631-1387L1631-1387L1631-1484L2242-1484L2242-1387Q2064-1384 2064-1339L2064-1339Q2064-1301 2099-1240L2099-1240L2387-733L2708-1277Q2726-1306 2726-1331L2726-1331Q2726-1382 2536-1388L2536-1388L2536-1484L3102-1484Z" /><path d="M4947-97L4947 0L4401 0L4401-97Q4499-97 4544-113L4544-113Q4581-123 4581-207L4581-207L4581-633Q4581-791 4548-851L4548-851Q4503-929 4408-929L4408-929Q4227-929 4150-699L4150-699L4150-207Q4150-126 4181-114L4181-114Q4222-97 4330-97L4330-97L4330 0L3782 0L3782-97Q3875-97 3914-109L3914-109Q3963-122 3963-207L3963-207L3963-635Q3963-800 3932-853L3932-853Q3887-929 3795-929L3795-929Q3612-929 3535-700L3535-700L3535-207Q3535-126 3566-114L3566-114Q3608-97 3714-97L3714-97L3714 0L3168 0L3168-97Q3261-97 3298-109L3298-109Q3348-122 3348-207L3348-207L3348-819Q3348-903 3314-916L3314-916Q3285-926 3168-926L3168-926L3168-1028Q3370-1031 3529-1068L3529-1068L3529-926Q3602-1055 3817-1055L3817-1055Q4082-1055 4113-887L4113-887Q4196-1055 4436-1055L4436-1055Q4768-1055 4768-666L4768-666L4768-207Q4768-124 4811-110L4811-110Q4846-97 4920-97L4920-97L4947-97Z" /><path d="M5325-1490L5325-1490Q5381-1490 5419-1451L5419-1451Q5455-1415 5455-1365L5455-1365Q5455-1243 5325-1243L5325-1243Q5198-1243 5198-1365L5198-1365Q5198-1490 5325-1490ZM5592-97L5592 0L5055 0L5055-97Q5143-97 5182-109L5182-109Q5233-122 5233-207L5233-207L5233-819Q5233-903 5199-916L5199-916Q5172-926 5055-926L5055-926L5055-1028Q5244-1031 5418-1067L5418-1067L5418-207Q5418-127 5451-114L5451-114Q5492-97 5592-97L5592-97Z" /><path d="M6942-97L6942 0L6399 0L6399-97Q6486-97 6527-107L6527-107Q6577-120 6577-207L6577-207L6577-637Q6577-927 6375-927L6375-927Q6171-927 6088-698L6088-698L6088-207Q6088-126 6128-111L6128-111Q6164-97 6265-97L6265-97L6265 0L5721 0L5721-97Q5814-97 5851-109L5851-109Q5901-122 5901-207L5901-207L5901-819Q5901-903 5867-916L5867-916Q5838-926 5721-926L5721-926L5721-1028Q5918-1031 6080-1067L6080-1067L6080-913Q6165-1055 6404-1055L6404-1055Q6764-1055 6764-666L6764-666L6764-207Q6764-127 6809-110L6809-110Q6841-97 6942-97L6942-97Z" /><path d="M7758-1024L7758-1024Q7863-1147 7991-1147L7991-1147Q8116-1147 8116-1041L8116-1041Q8116-945 8017-945L8017-945Q7927-945 7924-1020L7924-1020Q7883-1015 7853-974L7853-974Q7983-887 7983-699L7983-699Q7983-502 7814-406L7814-406Q7709-345 7573-345L7573-345Q7486-345 7397-368L7397-368Q7346-347 7346-304L7346-304Q7346-220 7550-207L7550-207L7665-199Q8075-169 8075 98L8075 98Q8075 237 7949 326L7949 326Q7812 425 7571 425L7571 425Q7361 425 7223 347L7223 347Q7079 267 7079 127L7079 127Q7079-87 7376-133L7376-133L7376-108Q7181-152 7181-281L7181-281Q7181-395 7270-422L7270-422Q7118-489 7118-689L7118-689Q7118-864 7265-972L7265-972Q7385-1059 7550-1059L7550-1059Q7680-1059 7758-1024ZM7548-947L7548-947Q7442-947 7373-879L7373-879Q7303-809 7303-693L7303-693Q7303-455 7550-455L7550-455Q7675-455 7743-529L7743-529Q7802-592 7802-701L7802-701Q7802-806 7733-875L7733-875Q7664-947 7548-947ZM7559-60L7559-60Q7264-60 7264 114L7264 114Q7264 211 7355 264L7355 264Q7437 311 7569 311L7569 311Q7757 311 7844 221L7844 221Q7890 175 7890 112L7890 112Q7890-60 7559-60Z" /><path d="M9331-1219L9116-1219L9116-834Q9116-736 9115-725L9115-725L9911-725L10009-832Q10086-779 10167-698L10167-698L10128-634L9109-634Q9076-127 8768 178L8768 178L8697 114Q8951-212 8951-826L8951-826L8951-1111Q8929-1089 8821-1001L8821-1001L8759-1069Q9031-1343 9153-1715L9153-1715Q9374-1687 9374-1632L9374-1632Q9374-1593 9284-1576L9284-1576Q9286-1579 9281-1565L9281-1565Q9265-1536 9272-1548L9272-1548L9553-1548L9639-1648Q9794-1516 9794-1485L9794-1485Q9794-1456 9745-1441L9745-1441L9695-1426Q9624-1337 9592-1310L9592-1310L9905-1310L10010-1440Q10106-1353 10166-1280L10166-1280L10131-1219L9751-1219L9751-1115Q9753-1091 9761-1087L9761-1087Q9774-1083 9845-1083L9845-1083Q9922-1083 9937-1107L9937-1107Q9953-1133 9961-1228L9961-1228L10057-1200Q10061-1112 10067-1098L10067-1098Q10071-1089 10117-1085L10117-1085Q10111-983 10036-962L10036-962Q9988-951 9873-951L9873-951Q9686-951 9639-980L9639-980Q9592-1011 9592-1084L9592-1084L9592-1219L9497-1219Q9476-964 9122-864L9122-864L9085-939Q9321-1043 9331-1219L9331-1219ZM9137-1310L9137-1310L9448-1310Q9509-1398 9533-1457L9533-1457L9224-1457Q9178-1382 9131-1316L9131-1316Q9124-1319 9137-1310ZM9317-225L9317-225L9825-225L9906-304Q10048-203 10048-170L10048-170Q10048-148 10024-134L10024-134L9989-112L9989 167L9828 167L9828 83L9303 83L9303 167L9142 167L9142-290Q9253-252 9317-225ZM9828-134L9303-134L9303-8L9828-8L9828-134ZM8244-1175L8300-1236Q8571-1121 8571-975L8571-975Q8571-877 8474-877L8474-877Q8408-877 8392-949L8392-949Q8364-1068 8244-1175L8244-1175ZM8392-1608L8439-1678Q8731-1583 8731-1432L8731-1432Q8731-1332 8634-1332L8634-1332Q8570-1332 8550-1413L8550-1413Q8527-1509 8392-1608L8392-1608ZM9159-890L9729-890L9820-970Q9843-958 9856-949L9856-949Q9858-947 9858-947L9858-947Q9907-917 9975-862L9975-862L9939-799L9198-799L9159-890ZM9134-561L9770-561L9862-646Q9939-599 10018-528L10018-528L9981-470L9179-470L9134-561ZM9136-403L9762-403L9861-486Q9944-434 10014-372L10014-372L9974-312L9181-312L9136-403ZM8788-1410L8877-1348L8613-394Q8582-281 8582-234L8582-234Q8582-213 8606-77L8606-77Q8616-17 8616 20L8616 20Q8616 163 8501 163L8501 163Q8401 163 8401 70L8401 70L8411-13Q8428-132 8428-191L8428-191Q8428-289 8388-324L8388-324Q8358-349 8267-362L8267-362L8267-456Q8358-442 8378-442L8378-442Q8443-442 8483-532L8483-532Q8606-830 8788-1410L8788-1410Z" /><path d="M10830-826L10591-826Q10580-764 10549-621L10549-621L10390-660Q10465-998 10502-1374L10502-1374Q10739-1339 10739-1280L10739-1280Q10739-1241 10653-1222L10653-1222Q10638-1068 10609-917L10609-917L10912-917L10912-1451L10414-1451L10381-1542L11061-1542L11162-1690Q11264-1592 11318-1518L11318-1518L11285-1451L11079-1451L11079-917L11080-917L11166-1062Q11212-1007 11202-1023L11202-1023Q11363-1261 11469-1725L11469-1725Q11698-1675 11698-1616L11698-1616Q11698-1573 11607-1560L11607-1560Q11543-1369 11477-1251L11477-1251L11702-1251Q11778-1434 11835-1707L11835-1707Q12065-1641 12065-1585L12065-1585Q12065-1541 11976-1531L11976-1531Q11908-1379 11825-1251L11825-1251L12007-1251L12107-1393Q12199-1302 12253-1222L12253-1222L12223-1160L11850-1160L11850-872L11956-872L12055-1008Q12143-920 12194-843L12194-843L12163-781L11850-781L11850-474L11954-474L12055-607Q12143-523 12199-445L12199-445L12164-383L11850-383L11850-53L12032-53L12145-201Q12237-109 12295-26L12295-26L12260 38L11467 38L11467 167L11300 167L11300-980Q11316-1004 11262-939L11262-939Q11267-933 11293-887L11293-887L11262-826L11079-826L11079-39Q11079 147 10841 147L10841 147Q10838 82 10786 61L10786 61Q10743 43 10594 23L10594 23L10594-70Q10742-53 10871-53L10871-53Q10912-53 10912-90L10912-90L10912-641Q10755-353 10386-65L10386-65L10324-138Q10663-455 10830-826L10830-826ZM11685-1160L11467-1160L11467-872L11685-872L11685-1160ZM11685-781L11467-781L11467-474L11685-474L11685-781ZM11685-383L11467-383L11467-53L11685-53L11685-383Z" /><path d="M13080-224L13080-361L12749-361L12749-146L12580-146L12580-1584Q12676-1544 12753-1501L12753-1501L13075-1501L13160-1608Q13306-1496 13306-1461L13306-1461Q13306-1441 13281-1420L13281-1420L13245-1393L13245-224L13080-224ZM14063-1463L13605-1463L13605-1118L13882-1118L13966-1231Q14050-1147 14097-1082L14097-1082L14066-1027L13605-1027L13605-762Q13605-717 13602-651L13602-651L13882-651L13966-763Q14049-681 14097-615L14097-615L14066-560L13597-560Q13574-309 13461-131L13461-131Q13350 43 13111 178L13111 178L13047 107Q13270-64 13352-263L13352-263Q13430-455 13430-762L13430-762L13430-1638Q13532-1593 13602-1554L13602-1554L14057-1554L14148-1665Q14299-1547 14299-1514L14299-1514Q14299-1493 14276-1473L14276-1473L14236-1440L14236-47Q14236 143 13975 143L13975 143Q13967 79 13930 64L13930 64Q13875 41 13678 17L13678 17L13678-79Q13874-61 14025-61L14025-61Q14063-61 14063-107L14063-107L14063-1463ZM12749-452L13080-452L13080-896L12749-896L12749-452ZM12749-987L13080-987L13080-1410L12749-1410L12749-987Z" /><path d="M15799-941L15799-941L15799-352L15899-352L15999-493Q16078-420 16157-323L16157-323L16117-261L15799-261L15799 167L15630 167L15630-261L15315-261L15279-352L15630-352L15630-861Q15457-464 15074-130L15074-130L15002-198Q15362-574 15565-1127L15565-1127L15102-1127L15066-1218L15630-1218L15630-1712Q15885-1708 15885-1638L15885-1638Q15885-1598 15799-1570L15799-1570L15799-1218L16166-1218L16284-1381Q16385-1285 16457-1189L16457-1189L16421-1127L15830-1127Q16069-675 16514-323L16514-323Q16440-273 16379-180L16379-180Q15950-576 15799-941ZM15002-1120L14994-1103Q15088-1083 15088-1039L15088-1039Q15088-1000 15008-972L15008-972L15008 167L14841 167L14841-821Q14749-664 14602-488L14602-488L14526-547Q14851-1023 15025-1715L15025-1715Q15264-1659 15264-1598L15264-1598Q15264-1552 15169-1539L15169-1539Q15104-1336 15002-1120L15002-1120Z" /><path d="M18136-96L18136 0L17550 0L17550-97Q17730-97 17730-149L17730-149Q17730-198 17711-241L17711-241L17602-506L17060-506L16955-232Q16934-173 16934-147L16934-147Q16934-97 17112-97L17112-97L17112 0L16581 0L16581-97L16618-97Q16749-97 16807-245L16807-245L17311-1507L17402-1507L17916-233Q17968-103 18136-96L18136-96ZM17105-624L17559-624L17331-1195L17105-624Z" /></svg>