<svg xmlns="http://www.w3.org/2000/svg" viewBox="22 -1723 17733.09765625 2148" fill="#000000"><path d="M160-1387L170-1484L809-1484Q1131-1484 1306-1344L1306-1344Q1558-1145 1518-745L1518-745Q1468-244 1052-67L1052-67Q894 0 651 0L651 0L22 0L31-97Q146-104 193-121L193-121Q245-144 254-237L254-237L355-1242Q364-1328 335-1349L335-1349Q302-1377 160-1387L160-1387ZM783-1378L783-1378L709-1378Q656-1378 612-1368L612-1368Q539-1350 528-1242L528-1242L428-239Q419-155 466-132L466-132Q503-112 582-112L582-112L656-112Q911-112 1041-198L1041-198Q1283-354 1323-755L1323-755Q1386-1378 783-1378Z" /><path d="M3155-1484L3145-1387Q2984-1384 2863-1214L2863-1214L2427-597L2391-237Q2383-153 2429-124L2429-124Q2467-103 2594-96L2594-96L2585 0L1982 0L1991-96Q2122-104 2162-121L2162-121Q2211-143 2220-237L2220-237L2255-578L1932-1233Q1855-1384 1694-1387L1694-1387L1704-1484L2295-1484L2285-1387Q2107-1384 2103-1339L2103-1339Q2099-1303 2127-1244L2127-1244L2374-718L2762-1281Q2782-1309 2784-1331L2784-1331Q2789-1381 2599-1387L2599-1387L2609-1484L3155-1484Z" /><path d="M4841-97L4832 0L4306 0L4315-97Q4406-97 4456-114L4456-114Q4498-125 4506-207L4506-207L4549-633Q4565-789 4538-847L4538-847Q4500-929 4396-929L4396-929Q4206-929 4104-697L4104-697L4055-207Q4048-129 4080-115L4080-115Q4122-97 4224-97L4224-97L4215 0L3687 0L3696-97Q3781-97 3825-110L3825-110Q3880-124 3888-207L3888-207L3931-635Q3947-797 3923-849L3923-849Q3884-929 3783-929L3783-929Q3591-929 3490-699L3490-699L3440-207Q3433-129 3465-115L3465-115Q3508-97 3608-97L3608-97L3599 0L3073 0L3082-97Q3168-97 3209-110L3209-110Q3265-124 3273-207L3273-207L3335-819Q3343-901 3306-915L3306-915Q3275-926 3165-926L3165-926L3176-1028Q3371-1031 3520-1065L3520-1065L3503-893Q3611-1055 3817-1055L3817-1055Q4072-1055 4089-860L4089-860Q4205-1055 4436-1055L4436-1055Q4758-1055 4719-666L4719-666L4673-207Q4665-126 4710-111L4710-111Q4747-97 4824-97L4824-97L4841-97Z" /><path d="M5349-1490L5349-1490Q5398-1490 5428-1455L5428-1455Q5462-1418 5456-1365L5456-1365Q5444-1243 5324-1243L5324-1243Q5207-1243 5219-1365L5219-1365Q5232-1490 5349-1490ZM5466-97L5457 0L4940 0L4949-97Q5029-97 5073-110L5073-110Q5130-124 5138-207L5138-207L5200-819Q5208-901 5171-915L5171-915Q5143-926 5032-926L5032-926L5043-1028Q5224-1031 5389-1064L5389-1064L5303-207Q5296-130 5330-115L5330-115Q5372-97 5466-97L5466-97Z" /><path d="M6796-97L6787 0L6264 0L6273-97Q6353-97 6397-108L6397-108Q6454-122 6462-207L6462-207L6505-637Q6534-927 6322-927L6322-927Q6108-927 6002-697L6002-697L5953-207Q5946-128 5990-111L5990-111Q6025-97 6119-97L6119-97L6110 0L5586 0L5595-97Q5681-97 5722-110L5722-110Q5778-124 5786-207L5786-207L5848-819Q5856-901 5819-915L5819-915Q5788-926 5678-926L5678-926L5689-1028Q5879-1031 6031-1065L6031-1065L6013-883Q6134-1055 6364-1055L6364-1055Q6714-1055 6675-666L6675-666L6629-207Q6622-129 6668-111L6668-111Q6701-97 6796-97L6796-97Z" /><path d="M7700-1020L7700-1020Q7820-1147 7940-1147L7940-1147Q8055-1147 8045-1041L8045-1041Q8035-945 7946-945L7946-945Q7866-945 7871-1021L7871-1021Q7810-1014 7778-975L7778-975Q7897-890 7878-699L7878-699Q7858-499 7681-404L7681-404Q7573-345 7442-345L7442-345Q7358-345 7268-369L7268-369Q7205-344 7201-304L7201-304Q7193-221 7404-207L7404-207L7519-199Q7917-170 7890 98L7890 98Q7876 240 7742 329L7742 329Q7599 425 7363 425L7363 425Q7158 425 7032 349L7032 349Q6897 270 6911 127L6911 127Q6933-89 7234-135L7234-135L7231-106Q7041-150 7054-281L7054-281Q7065-397 7151-422L7151-422Q7011-487 7032-689L7032-689Q7049-867 7207-975L7207-975Q7331-1059 7491-1059L7491-1059Q7617-1059 7700-1020ZM7477-947L7477-947Q7364-947 7285-875L7285-875Q7208-806 7197-693L7197-693Q7173-455 7430-455L7430-455Q7563-455 7642-532L7642-532Q7706-595 7717-701L7717-701Q7727-803 7666-871L7666-871Q7600-947 7477-947ZM7400-60L7400-60Q7095-60 7077 114L7077 114Q7068 208 7156 262L7156 262Q7236 311 7373 311L7373 311Q7568 311 7668 217L7668 217Q7718 172 7724 112L7724 112Q7741-60 7400-60Z" /><path d="M9278-1219L9043-1219L9004-834Q8994-735 8992-725L8992-725L9805-725L9908-827Q9969-782 10044-698L10044-698L9998-634L8977-634Q8892-124 8565 171L8565 171L8507 115Q8797-214 8858-826L8858-826L8889-1128Q8841-1085 8739-1008L8739-1008L8688-1070Q8991-1347 9148-1713L9148-1713Q9348-1688 9342-1632L9342-1632Q9338-1592 9246-1574L9246-1574Q9247-1576 9241-1562L9241-1562Q9222-1532 9233-1548L9233-1548L9531-1548L9620-1641Q9751-1519 9747-1485L9747-1485Q9744-1454 9698-1440L9698-1440L9643-1424Q9561-1333 9532-1310L9532-1310L9858-1310L9970-1432Q10045-1357 10101-1280L10101-1280L10059-1219L9678-1219L9667-1115Q9667-1093 9679-1088L9679-1088Q9694-1083 9768-1083L9768-1083Q9853-1083 9874-1111L9874-1111Q9892-1136 9908-1224L9908-1224L9982-1202Q9977-1114 9981-1102L9981-1102Q9986-1089 10030-1086L10030-1086Q10014-981 9943-961L9943-961Q9896-951 9783-951L9783-951Q9601-951 9561-978L9561-978Q9518-1008 9525-1084L9525-1084L9539-1219L9424-1219Q9377-961 9030-867L9030-867L9002-941Q9250-1046 9278-1219L9278-1219ZM9077-1310L9077-1310L9403-1310Q9475-1401 9503-1457L9503-1457L9175-1457Q9120-1378 9069-1317L9069-1317Q9062-1321 9077-1310ZM9150-225L9150-225L9669-225L9753-298Q9873-206 9870-170L9870-170Q9867-145 9843-132L9843-132L9805-109L9777 167L9636 167L9644 83L9099 83L9091 167L8950 167L8995-286Q9086-253 9150-225ZM9666-134L9121-134L9109-8L9654-8L9666-134ZM8183-1174L8242-1232Q8488-1124 8473-975L8473-975Q8463-877 8376-877L8376-877Q8320-877 8312-946L8312-946Q8295-1065 8183-1174L8183-1174ZM8375-1607L8427-1675Q8694-1586 8679-1432L8679-1432Q8669-1332 8582-1332L8582-1332Q8528-1332 8517-1411L8517-1411Q8503-1505 8375-1607L8375-1607ZM9072-890L9640-890L9733-966Q9745-960 9756-952L9756-952Q9759-949 9761-948L9761-948Q9805-920 9868-864L9868-864L9825-799L9102-799L9072-890ZM9014-561L9648-561L9743-642Q9804-602 9878-529L9878-529L9835-470L9050-470L9014-561ZM9000-403L9624-403L9725-482Q9792-437 9859-373L9859-373L9811-312L9036-312L9000-403ZM8749-1402L8818-1350L8457-394Q8415-280 8410-234L8410-234Q8408-214 8419-78L8419-78Q8423-18 8419 20L8419 20Q8404 163 8299 163L8299 163Q8209 163 8219 69L8219 69L8237-14Q8266-133 8272-191L8272-191Q8281-286 8245-321L8245-321Q8215-348 8128-361L8128-361L8137-454Q8216-442 8237-442L8237-442Q8312-442 8362-536L8362-536Q8514-833 8749-1402L8749-1402Z" /><path d="M10721-826L10464-826Q10446-762 10402-624L10402-624L10265-658Q10375-1000 10449-1372L10449-1372Q10663-1340 10657-1280L10657-1280Q10653-1239 10564-1220L10564-1220Q10534-1066 10490-917L10490-917L10813-917L10867-1451L10369-1451L10344-1542L11024-1542L11132-1681Q11212-1596 11261-1518L11261-1518L11221-1451L11014-1451L10960-917L10980-917L11073-1051Q11102-1011 11103-1010L11103-1010Q11300-1265 11451-1723L11451-1723Q11655-1677 11649-1616L11649-1616Q11645-1572 11553-1558L11553-1558Q11468-1365 11393-1251L11393-1251L11636-1251Q11731-1436 11814-1703L11814-1703Q12019-1643 12013-1585L12013-1585Q12009-1540 11920-1530L11920-1530Q11834-1376 11742-1251L11742-1251L11940-1251L12047-1384Q12118-1306 12167-1223L12167-1223L12130-1160L11756-1160L11727-872L11851-872L11956-999Q12024-924 12070-844L12070-844L12032-781L11718-781L11687-474L11809-474L11916-599Q11984-527 12034-446L12034-446L11993-383L11678-383L11645-53L11845-53L11966-192Q12037-113 12088-27L12088-27L12048 38L11253 38L11240 167L11093 167L11210-1006Q11205-1000 11149-939L11149-939Q11149-937 11173-888L11173-888L11135-826L10951-826L10873-39Q10854 147 10636 147L10636 147Q10639 85 10587 62L10587 62Q10543 44 10401 24L10401 24L10411-69Q10546-53 10676-53L10676-53Q10727-53 10731-90L10731-90L10789-676Q10579-349 10195-72L10195-72L10145-139Q10520-459 10721-826L10721-826ZM11611-1160L11373-1160L11344-872L11582-872L11611-1160ZM11573-781L11335-781L11304-474L11542-474L11573-781ZM11533-383L11295-383L11262-53L11500-53L11533-383Z" /><path d="M12896-224L12910-361L12559-361L12537-146L12388-146L12532-1578Q12606-1546 12682-1501L12682-1501L13017-1501L13107-1602Q13230-1499 13226-1461L13226-1461Q13224-1438 13195-1417L13195-1417L13158-1390L13041-224L12896-224ZM14003-1463L13525-1463L13491-1118L13786-1118L13874-1222Q13938-1151 13980-1083L13980-1083L13943-1027L13481-1027L13455-762Q13450-716 13441-651L13441-651L13739-651L13827-754Q13890-685 13934-616L13934-616L13897-560L13427-560Q13377-306 13250-131L13250-131Q13119 47 12880 173L12880 173L12827 106Q13071-67 13173-266L13173-266Q13269-457 13300-762L13300-762L13387-1632Q13467-1595 13536-1554L13536-1554L14003-1554L14100-1658Q14228-1550 14224-1514L14224-1514Q14222-1490 14197-1470L14197-1470L14153-1437L14014-47Q13995 143 13754 143L13754 143Q13754 81 13714 65L13714 65Q13660 42 13470 18L13470 18L13480-78Q13663-61 13815-61L13815-61Q13863-61 13867-107L13867-107L14003-1463ZM12568-452L12919-452L12963-896L12612-896L12568-452ZM12621-987L12972-987L13015-1410L12664-1410L12621-987Z" /><path d="M15652-988L15652-988L15588-352L15706-352L15813-485Q15873-424 15945-324L15945-324L15899-261L15579-261L15536 167L15387 167L15430-261L15114-261L15087-352L15439-352L15494-905Q15256-460 14852-136L14852-136L14793-198Q15195-578 15450-1127L15450-1127L14987-1127L14961-1218L15526-1218L15575-1712Q15810-1708 15803-1638L15803-1638Q15798-1595 15709-1567L15709-1567L15675-1218L16060-1218L16187-1373Q16268-1289 16332-1190L16332-1190L16288-1127L15697-1127Q15890-679 16304-322L16304-322Q16220-270 16160-189L16160-189Q15782-572 15652-988ZM14867-1116L14860-1105Q14950-1085 14946-1039L14946-1039Q14942-998 14859-970L14859-970L14745 167L14598 167L14700-852Q14568-661 14413-495L14413-495L14352-546Q14728-1026 14969-1713L14969-1713Q15184-1661 15178-1598L15178-1598Q15173-1551 15077-1538L15077-1538Q14990-1333 14867-1116L14867-1116Z" /><path d="M17354-765L17357-794Q17784-720 17753-416L17753-416Q17712 0 17091 0L17091 0L16449 0L16458-97Q16573-104 16620-121L16620-121Q16672-144 16681-237L16681-237L16782-1243Q16791-1328 16762-1349L16762-1349Q16729-1377 16587-1387L16587-1387L16597-1484L17249-1484Q17450-1484 17583-1416L17583-1416Q17762-1324 17742-1118L17742-1118Q17713-830 17354-765L17354-765ZM16951-1243L16910-831L17114-831Q17529-831 17557-1110L17557-1110Q17584-1378 17200-1378L17200-1378L17130-1378Q17075-1378 17045-1370L17045-1370Q16962-1355 16951-1243L16951-1243ZM17098-717L16898-717L16852-250Q16837-106 17002-106L17002-106L17068-106Q17534-106 17564-407L17564-407Q17595-717 17098-717L17098-717Z" /></svg>